<?xml version="1.0" encoding="UTF-8" standalone="no"?>
<!-- Created with Inkscape (http://www.inkscape.org/) -->

<svg
   xmlns:dc="http://purl.org/dc/elements/1.1/"
   xmlns:cc="http://creativecommons.org/ns#"
   xmlns:rdf="http://www.w3.org/1999/02/22-rdf-syntax-ns#"
   xmlns:svg="http://www.w3.org/2000/svg"
   xmlns="http://www.w3.org/2000/svg"
   xmlns:sodipodi="http://sodipodi.sourceforge.net/DTD/sodipodi-0.dtd"
   xmlns:inkscape="http://www.inkscape.org/namespaces/inkscape"
   version="1.1"
   id="svg10"
   width="64"
   height="64"
   viewBox="0 0 64 64"
   sodipodi:docname="623f2effa2d62e748577f581868a071d.svg"
   inkscape:version="0.92.3 (2405546, 2018-03-11)">
  <metadata
     id="metadata16">
    <rdf:RDF>
      <cc:Work
         rdf:about="">
        <dc:format>image/svg+xml</dc:format>
        <dc:type
           rdf:resource="http://purl.org/dc/dcmitype/StillImage" />
        <dc:title></dc:title>
      </cc:Work>
    </rdf:RDF>
  </metadata>
  <defs
     id="defs14" />
  <sodipodi:namedview
     pagecolor="#ffffff"
     bordercolor="#666666"
     borderopacity="1"
     objecttolerance="10"
     gridtolerance="10"
     guidetolerance="10"
     inkscape:pageopacity="0"
     inkscape:pageshadow="2"
     inkscape:window-width="1920"
     inkscape:window-height="1137"
     id="namedview12"
     showgrid="false"
     inkscape:zoom="10.717087"
     inkscape:cx="18.114088"
     inkscape:cy="30.965024"
     inkscape:window-x="1192"
     inkscape:window-y="-8"
     inkscape:window-maximized="1"
     inkscape:current-layer="layer1" />
  <g
     inkscape:groupmode="layer"
     id="layer1"
     inkscape:label="Layer 1"
     style="opacity:1">
    <path
       style="fill:#000000;stroke-width:0.30691406"
       d="M 19.214424,57.937164 C 15.252275,56.895037 11.758334,54.13637 10.08408,50.728237 7.5718677,45.614344 8.0647547,38.900328 11.266374,34.623247 c 2.946018,-3.935624 8.920059,-5.92372 13.034727,-4.337817 0.770987,0.297159 2.2793,0.520292 3.600772,0.532682 2.626745,0.02463 4.109875,-0.558175 8.108271,-3.186184 1.327071,-0.872238 2.501557,-1.585888 2.609971,-1.585888 0.335914,0 0.209278,1.927546 -0.26088,3.970811 -0.859572,3.735641 -2.35484,6.001981 -5.155784,7.814487 -1.054051,0.682083 -2.13234,1.555955 -2.3962,1.941942 -1.128609,1.650983 -0.184382,3.329926 2.015614,3.584003 1.918508,0.22157 2.773177,-0.05097 4.146536,-1.322266 1.837524,-1.700963 2.456201,-3.564826 2.657729,-8.006841 0.198165,-4.367962 0.708315,-5.967849 2.179345,-6.834691 1.121844,-0.661077 1.118272,-0.682011 0.459861,2.694976 -0.388933,1.994828 -0.418874,2.71554 -0.142327,3.42586 l 0.350228,0.899564 0.777543,-0.74423 c 1.031402,-0.987213 1.487982,-1.937376 2.205109,-4.588922 l 0.598134,-2.211576 -0.814255,-0.199533 c -1.437007,-0.352139 -4.422721,-1.849289 -5.428338,-2.721975 -1.511313,-1.311534 -2.872613,-4.409524 -2.757153,-6.27461 l 0.09433,-1.523745 1.274104,1.902738 c 1.519931,2.269848 2.114475,2.618924 2.428749,1.42599 0.687122,-2.60822 -0.334134,-5.760502 -2.30747,-7.122401 -1.42886,-0.986127 -2.565467,-0.893098 -5.193991,0.425118 -2.866279,1.437451 -4.880806,1.560791 -7.215323,0.441761 -0.862978,-0.413661 -1.569051,-0.848099 -1.569051,-0.965418 0,-0.117319 0.803791,-0.299388 1.786202,-0.404598 1.838461,-0.196888 5.187499,-1.313388 5.187499,-1.7294039 0,-0.360778 -1.260966,-1.4590166 -2.280149,-1.9858983 -1.206962,-0.623955 -3.563005,-1.0539201 -7.274812,-1.327613 -4.340028,-0.3200156 -4.721421,-0.556396 -1.966009,-1.2184974 3.398237,-0.816567 9.319682,-0.9797447 12.393698,-0.3415344 8.615341,1.7886696 14.780247,6.976232 17.36537,14.612385 0.591768,1.748016 0.896191,2.30969 1.04152,1.921649 0.426505,-1.138821 -0.137573,-4.416838 -1.229606,-7.145562 -0.606173,-1.514679 -1.036035,-2.821686 -0.955249,-2.90446 0.274825,-0.281591 3.21118,4.095708 4.435604,6.61227 1.563586,3.213645 2.224532,6.344163 2.028723,9.608901 -0.26762,4.462019 -1.488776,6.728667 -6.849857,12.714341 -1.519009,1.69598 -2.761831,3.216317 -2.761831,3.378527 0,0.894801 5.469249,-1.499103 8.133915,-3.560237 0.888262,-0.687076 1.692272,-1.170073 1.78669,-1.073331 0.323961,0.331938 -1.45077,4.695673 -2.516412,6.187395 -2.015863,2.821866 -4.452562,3.921377 -10.475096,4.726675 -3.673406,0.491186 -6.964147,1.357944 -7.944664,2.092567 -0.520778,0.390176 -0.515575,0.437975 0.11097,1.019815 0.570958,0.530222 1.191265,0.623824 4.719758,0.71219 2.234325,0.05595 4.062408,0.220554 4.062408,0.365776 0,0.419841 -3.051009,1.785602 -5.493454,2.459101 -4.378435,1.207344 -15.781395,1.91608 -18.657419,1.159625 z m 8.768531,-37.250166 c -0.529662,-0.384453 -1.589881,-1.536064 -2.356042,-2.559136 -0.766161,-1.023072 -1.591039,-1.973676 -1.833063,-2.112454 -0.640677,-0.367368 -0.538336,-0.842786 0.181423,-0.842786 0.697279,0 2.197663,0.728803 3.280702,1.593582 0.706069,0.563779 0.733895,0.560467 1.60561,-0.191091 1.227007,-1.057876 2.938721,-1.493908 4.156723,-1.058858 2.336532,0.834573 1.992071,4.047093 -0.580085,5.409952 -1.309309,0.693741 -3.318569,0.585861 -4.455268,-0.239209 z M 13.995032,16.803621 c -0.18907,-0.361979 -0.343765,-1.016838 -0.343765,-1.455241 0,-1.238746 -1.21259,-0.988154 -3.131108,0.64707 -1.1946843,1.018273 -1.7441683,0.967515 -1.4362213,-0.132668 0.78096,-2.790088 3.6170533,-6.3767687 5.9620113,-7.5398909 1.50205,-0.7450317 3.673708,-0.8606938 4.63315,-0.2467607 0.353563,0.2262398 0.865317,0.89172 1.137232,1.4788452 0.760921,1.6429984 0.316317,2.4863254 -1.657678,3.1442934 -1.768927,0.589615 -3.437439,2.030291 -4.280033,3.695592 -0.521173,1.030045 -0.551699,1.044167 -0.883588,0.40876 z"
       id="path39"
       inkscape:connector-curvature="0" />
  </g>
  <g
     inkscape:groupmode="layer"
     id="layer2"
     inkscape:label="Layer 2" />
</svg>
